<svg xmlns="http://www.w3.org/2000/svg" xmlns:xlink="http://www.w3.org/1999/xlink" width="394.42" height="152" viewBox="0 0 394.42 152">
  <defs>
    <clipPath id="clip-path">
      <path id="Union_45" data-name="Union 45" d="M0,152H394.42V0H0Z" transform="translate(394.42 152) rotate(180)" fill="#fff"/>
    </clipPath>
    <clipPath id="clip-path-2">
      <rect id="Rectangle_10329" data-name="Rectangle 10329" width="127.801" height="19.287" fill="#e3e3e3"/>
    </clipPath>
    <clipPath id="clip-path-3">
      <rect id="Rectangle_10330" data-name="Rectangle 10330" width="114.852" height="10.643" fill="#e3e3e3"/>
    </clipPath>
    <clipPath id="clip-path-4">
      <rect id="Rectangle_10331" data-name="Rectangle 10331" width="119.686" height="30.661" fill="#e3e3e3"/>
    </clipPath>
    <clipPath id="clip-path-5">
      <rect id="Rectangle_10332" data-name="Rectangle 10332" width="118.994" height="17.959" fill="#e3e3e3"/>
    </clipPath>
    <clipPath id="clip-path-6">
      <rect id="Rectangle_10333" data-name="Rectangle 10333" width="118.986" height="17.958" fill="#e3e3e3"/>
    </clipPath>
    <clipPath id="clip-path-7">
      <rect id="Rectangle_10335" data-name="Rectangle 10335" width="116.387" height="6.408" fill="#e3e3e3"/>
    </clipPath>
  </defs>
  <g id="Mask_Group_48" data-name="Mask Group 48" clip-path="url(#clip-path)">
    <g id="Group_19137" data-name="Group 19137" transform="translate(106.477 0.35)">
      <g id="Group_19118" data-name="Group 19118" transform="translate(0 12.158)" opacity="0.53">
        <g id="Group_19117" data-name="Group 19117">
          <g id="Group_19116" data-name="Group 19116" clip-path="url(#clip-path-2)">
            <path id="Path_55024" data-name="Path 55024" d="M573.215,35.617l8.3-1.07a284.317,284.317,0,0,1,36.227-2.333c7.144,0,14.391.277,21.538.823l.177.014.169-.053c2.473-.782,25.116-7.836,58.2-14.759l6.553-1.371-6.685-.407c-8.41-.513-16.932-.773-25.329-.773-11.741,0-23.621.508-35.311,1.51l-.063.005-.062.014c-17.32,3.943-31.574,7.971-40.481,10.655-9.658,2.911-15.3,4.917-15.354,4.937Zm44.524-5.2c-9.242,0-18.575.46-27.85,1.371,2.029-.646,4.406-1.386,7.1-2.2,8.866-2.672,23.048-6.679,40.282-10.6,11.618-.994,23.424-1.5,35.091-1.5,6.112,0,12.289.138,18.441.412-28.909,6.321-48.575,12.392-51.559,13.33C632.1,30.688,624.87,30.414,617.739,30.414Z" transform="translate(-575.054 -15.889)" fill="#e3e3e3"/>
          </g>
        </g>
      </g>
      <g id="Group_19121" data-name="Group 19121" transform="translate(76.613 1.243)" opacity="0.24">
        <g id="Group_19120" data-name="Group 19120">
          <g id="Group_19119" data-name="Group 19119" clip-path="url(#clip-path-3)">
            <path id="Path_55025" data-name="Path 55025" d="M492.025,12.651c12.166-.921,24.478-1.389,36.592-1.389,8.325,0,16.751.221,25.042.656l.109.006.108-.02c17.852-3.35,35.621-6.022,52.813-7.941l-.07-1.794C595.748,1.794,584.571,1.6,573.4,1.6c-6.345,0-12.826.061-19.265.182l-.06,0a550.292,550.292,0,0,0-62.3,9.083ZM594.439,3.629c-13.4,1.74-27.072,3.913-40.792,6.486-8.288-.433-16.708-.653-25.029-.653-7.482,0-15.04.178-22.592.53C522.533,7.052,538.682,4.9,554.2,3.585c6.417-.12,12.877-.181,19.2-.181C580.436,3.4,587.475,3.48,594.439,3.629Z" transform="translate(-491.815 -1.806)" fill="#e3e3e3"/>
          </g>
        </g>
      </g>
      <g id="Group_19124" data-name="Group 19124" transform="translate(79.916 14.507)" opacity="0.82">
        <g id="Group_19123" data-name="Group 19123">
          <g id="Group_19122" data-name="Group 19122" clip-path="url(#clip-path-4)">
            <path id="Path_55026" data-name="Path 55026" d="M543.727,18.717l-.14.029C511.6,25.334,490.616,32.088,484.948,34l-3.585,1.21,3.748.533a295.764,295.764,0,0,1,29.4,5.728c9.178,2.275,18.441,5.037,27.533,8.211l.333.116.325-.137c.057-.024,5.778-2.439,15.593-6.04,9.058-3.323,23.554-8.365,41.174-13.511l3.241-.947-3.284-.791a434.275,434.275,0,0,0-55.556-9.642ZM489.137,34.524a545.122,545.122,0,0,1,54.679-13.987A431.866,431.866,0,0,1,595.7,29.344c-16.209,4.825-29.532,9.469-38.056,12.6s-13.987,5.37-15.334,5.93c-9.038-3.144-18.243-5.884-27.364-8.144C506.412,37.61,497.747,35.864,489.137,34.524Z" transform="translate(-482.235 -18.922)" fill="#e3e3e3"/>
          </g>
        </g>
      </g>
      <path id="Path_55027" data-name="Path 55027" d="M352.249,72.594l-.5.28c-.021.009-.045.02-.071.034-.709.36-1.429.715-2.126,1.059l-.819.405,0,0c-2.109,1.06-4.164,2.117-5.9,3.01-2.091,1.075-3.8,1.98-5.359,2.842a1.6,1.6,0,0,0-.229.116l-.027.016c-2.006,1.063-3.613,1.941-5.044,2.756a.958.958,0,0,0-.2.1c-1.769.968-3.463,1.928-4.889,2.742-.49.283-.971.559-1.449.832-.542.31-1.1.631-1.646.946l-.818.479c-.791.464-1.538.9-2.288,1.337l-.008,0c-1.7,1.01-3.355,2.015-4.888,2.951-1.271.779-2.583,1.583-3.841,2.389-11.266,7.04-17.456,11.728-18.583,12.6l-.956.737.982.7c8.443,6.043,16.741,12.492,24.663,19.168,6.337,5.341,12.449,10.838,18.166,16.339,9.726,9.358,14.99,15.548,15.042,15.61l.7.82.7-.82c.052-.062,5.333-6.27,15.066-15.633,5.716-5.5,11.825-10.993,18.16-16.331,7.917-6.671,16.209-13.116,24.646-19.154l.985-.7-.961-.737c-1.136-.871-7.372-5.573-18.562-12.593a444.27,444.27,0,0,0-39.544-21.988Zm-2.7,3.387.813-.4c.589-.291,1.194-.589,1.8-.894,31.812,15.709,51.931,30.115,56.507,33.5-8.139,5.864-16.135,12.1-23.782,18.543-6.367,5.366-12.509,10.89-18.255,16.418-7.777,7.483-12.735,12.971-14.473,14.945-1.738-1.973-6.7-7.462-14.473-14.945-5.746-5.528-11.887-11.052-18.255-16.418-7.649-6.446-15.646-12.681-23.786-18.545,2.316-1.729,8.131-5.928,17.477-11.768l.009-.006c1.244-.8,2.549-1.6,3.812-2.371,1.525-.931,3.171-1.932,4.862-2.936.753-.437,1.5-.875,2.292-1.339l.813-.477c.536-.311,1.095-.63,1.635-.94q.72-.412,1.451-.833c1.385-.79,3.028-1.723,4.745-2.663h.024l.211-.12c1.442-.822,3.064-1.709,5.1-2.791l.009,0,.07-.04.039-.011.1-.053c1.564-.865,3.273-1.771,5.378-2.853C345.4,78.091,347.445,77.037,349.547,75.981Z" transform="translate(-64.207 -16.572)" fill="#e3e3e3"/>
      <g id="Group_19127" data-name="Group 19127" transform="translate(303.593 3.128)" opacity="0.53">
        <g id="Group_19126" data-name="Group 19126">
          <g id="Group_19125" data-name="Group 19125" clip-path="url(#clip-path-5)">
            <path id="Path_55028" data-name="Path 55028" d="M252.024,4.037l-.063,0c-16.927,1.1-33.662,2.708-49.743,4.78l-6.1.787,6.074.994c17.53,2.868,35.856,6.821,54.47,11.748l.212.056.215-.046c12.821-2.762,26.07-5.02,39.381-6.711,5.443-.694,10.351-1.246,15-1.687l6.525-.619-6.449-1.162c-8.717-1.571-17.711-3.012-26.731-4.283-10.872-1.529-21.86-2.82-32.659-3.839V4.048h-.008l-.059-.005ZM208.518,9.85c14.122-1.7,28.7-3.045,43.42-4,10.786,1.016,21.76,2.306,32.62,3.833,6.814.96,13.613,2.018,20.288,3.155-2.738.3-5.593.645-8.612,1.029-13.288,1.688-26.516,3.939-39.321,6.691C240.441,16.2,224.192,12.607,208.518,9.85Z" transform="translate(-197.513 -4.239)" fill="#e3e3e3"/>
          </g>
        </g>
      </g>
      <g id="Group_19130" data-name="Group 19130" transform="translate(153.31 3.129)" opacity="0.53">
        <g id="Group_19129" data-name="Group 19129">
          <g id="Group_19128" data-name="Group 19128" clip-path="url(#clip-path-6)">
            <path id="Path_55029" data-name="Path 55029" d="M449.49,22.407l.212-.056c18.6-4.925,36.927-8.878,54.468-11.75l6.072-.994-6.1-.786c-16.061-2.07-32.8-3.677-49.743-4.779l-.066,0-.124.01v.01C443.365,5.082,432.38,6.373,421.556,7.9c-9.081,1.281-18.078,2.722-26.741,4.283l-6.443,1.161,6.518.621c4.623.44,9.513.991,14.95,1.683,13.34,1.693,26.608,3.953,39.435,6.718ZM497.842,9.85c-15.683,2.759-31.931,6.353-48.395,10.705-12.812-2.754-26.059-5.007-39.375-6.7-3-.382-5.842-.722-8.562-1.023,6.647-1.132,13.45-2.19,20.3-3.156,10.807-1.52,21.775-2.809,32.6-3.831C469.151,6.807,483.729,8.151,497.842,9.85Z" transform="translate(-389.858 -4.24)" fill="#e3e3e3"/>
          </g>
        </g>
      </g>
      <path id="Path_55030" data-name="Path 55030" d="M443.327,36.194l-.32.1a359.985,359.985,0,0,0-37.091,13.562,191.266,191.266,0,0,0-17.9,8.761l-1.6.907,1.7.7a359.408,359.408,0,0,1,57.595,30.44l.518.336.5-.356c2.963-2.091,9.362-6.431,18.935-12a401.26,401.26,0,0,1,37.895-19.321l1.855-.829-1.861-.815c-5.354-2.345-11.091-4.714-17.052-7.039-5.295-2.063-10.73-4.065-16.155-5.949-7.806-2.708-23.636-7.454-26.73-8.378l-.035-.01Zm-52.8,23.087c3.135-1.712,8.5-4.464,16.116-7.778a357.646,357.646,0,0,1,36.636-13.409c3.48,1.04,18.844,5.653,26.472,8.3,5.4,1.877,10.817,3.87,16.091,5.925,5.252,2.049,10.329,4.131,15.122,6.2a401.132,401.132,0,0,0-36.212,18.576c-9.122,5.306-15.389,9.509-18.564,11.731A361.823,361.823,0,0,0,390.529,59.281Z" transform="translate(-231.098 -8.356)" fill="#e3e3e3"/>
      <g id="Group_19136" data-name="Group 19136" transform="translate(229.752)" opacity="0.24">
        <g id="Group_19135" data-name="Group 19135">
          <g id="Group_19134" data-name="Group 19134" clip-path="url(#clip-path-7)">
            <path id="Path_55032" data-name="Path 55032" d="M352.117,6.813l.109-.013a394.337,394.337,0,0,1,47.065-3.082c3.7,0,7.381.069,10.93.206l.105-1.8C391.948.716,373.491,0,355.468,0c-1.112,0-2.24,0-3.351.008S349.879,0,348.766,0c-18.024,0-36.481.716-54.859,2.128l.105,1.8c3.549-.137,7.227-.206,10.93-.206A394.337,394.337,0,0,1,352.008,6.8ZM382.8,2.337C373.177,2.812,363.023,3.7,352.117,5,341.211,3.7,331.056,2.812,321.436,2.337c9.176-.357,18.307-.537,27.33-.537,1.111,0,2.237,0,3.346.008h.009c1.109-.005,2.235-.008,3.346-.008C364.49,1.8,373.622,1.979,382.8,2.337Z" transform="translate(-293.923 -0.202)" fill="#e3e3e3"/>
          </g>
        </g>
      </g>
      <path id="Path_55033" data-name="Path 55033" d="M351.827,13.97l-.144.023a584.451,584.451,0,0,0-59.374,12.529l-3.336.9,3.351.843a453.292,453.292,0,0,1,46.94,14.578l.025.009c.565.191,1.143.409,1.7.62l.583.219c3.349,1.253,9.852,3.82,9.918,3.846l.336.133.336-.133c.065-.026,6.571-2.593,9.919-3.846l.563-.212c.566-.213,1.152-.434,1.723-.627l.025-.009a453.277,453.277,0,0,1,46.939-14.578l3.351-.843-3.337-.9a584.528,584.528,0,0,0-59.376-12.529Zm-55.709,13.4c17.392-4.552,36.113-8.444,55.709-11.581,19.6,3.137,38.318,7.029,55.711,11.581a455.9,455.9,0,0,0-43.769,13.776c-.6.2-1.192.427-1.769.644l-.558.21c-2.924,1.094-8.232,3.182-9.615,3.726-1.382-.545-6.689-2.632-9.614-3.726l-.577-.217c-.57-.215-1.158-.437-1.749-.637A455.912,455.912,0,0,0,296.118,27.375Z" transform="translate(-63.881 -3.347)" fill="#e3e3e3"/>
      <path id="Path_55036" data-name="Path 55036" d="M261.623,36.195l-.262.111-.035.01c-3.085.924-18.869,5.67-26.655,8.378-5.408,1.884-10.828,3.885-16.109,5.949-5.948,2.327-11.669,4.695-17.005,7.039L199.7,58.5l1.848.828a399.679,399.679,0,0,1,37.787,19.321c9.544,5.567,15.927,9.908,18.882,12l.506.358.519-.338a358.041,358.041,0,0,1,57.432-30.44l1.692-.7-1.591-.907a190.547,190.547,0,0,0-17.85-8.761,358.45,358.45,0,0,0-36.986-13.562ZM204.148,58.519c4.777-2.069,9.84-4.151,15.08-6.2,5.26-2.055,10.658-4.049,16.044-5.925,7.606-2.646,22.921-7.258,26.395-8.3A356.076,356.076,0,0,1,298.2,51.5c7.6,3.314,12.946,6.066,16.072,7.778a360.429,360.429,0,0,0-55.5,29.543C255.6,86.6,249.352,82.4,240.26,77.1A399.585,399.585,0,0,0,204.148,58.519Z" transform="translate(101.87 -8.356)" fill="#e3e3e3"/>
    </g>
  </g>
</svg>
