<svg id="web-programming" xmlns="http://www.w3.org/2000/svg" width="40.404" height="35.648" viewBox="0 0 40.404 35.648">
  <path id="Path_1467" data-name="Path 1467" d="M35.925,35.648H4.479A4.484,4.484,0,0,1,0,31.169V4.479A4.484,4.484,0,0,1,4.479,0H35.925A4.484,4.484,0,0,1,40.4,4.479v26.69A4.484,4.484,0,0,1,35.925,35.648ZM4.479,1.334A3.148,3.148,0,0,0,1.334,4.479v26.69a3.148,3.148,0,0,0,3.145,3.145H35.925a3.148,3.148,0,0,0,3.145-3.145V4.479a3.148,3.148,0,0,0-3.145-3.145Zm0,0"/>
  <path id="Path_1468" data-name="Path 1468" d="M39.737,99.424H.667a.667.667,0,0,1,0-1.334h39.07a.667.667,0,0,1,0,1.334Zm0,0" transform="translate(0 -88.743)"/>
  <path id="Path_1469" data-name="Path 1469" d="M99.561,38.511a2.111,2.111,0,1,1,2.111-2.111A2.114,2.114,0,0,1,99.561,38.511Zm0-2.888a.777.777,0,1,0,.777.777A.778.778,0,0,0,99.561,35.623Zm0,0" transform="translate(-88.163 -31.022)"/>
  <path id="Path_1470" data-name="Path 1470" d="M31.5,38.3a2.111,2.111,0,1,1,2.111-2.111A2.113,2.113,0,0,1,31.5,38.3Zm0-2.888a.777.777,0,1,0,.777.777A.778.778,0,0,0,31.5,35.408Zm0,0" transform="translate(-26.586 -30.827)"/>
  <path id="Path_1471" data-name="Path 1471" d="M167.626,38.726a2.111,2.111,0,1,1,2.111-2.111A2.113,2.113,0,0,1,167.626,38.726Zm0-2.888a.777.777,0,1,0,.777.777A.778.778,0,0,0,167.626,35.838Zm0,0" transform="translate(-149.743 -31.216)"/>
</svg>
