<svg xmlns="http://www.w3.org/2000/svg" width="227.489" height="71.746" viewBox="0 0 227.489 71.746">
  <g id="Logo" transform="translate(-0.463)">
    <path id="Path_44160" data-name="Path 44160" d="M163.778,1.6c14.445,7.231,22.97,16.131,22.97,25.751,0,23.166-49.343,42.127-111.822,43.7,1.914.016,3.845,0,5.775-.016,63.707-.72,115.126-19.5,114.865-41.915C195.451,18.316,183.377,8.647,163.778,1.6Z" transform="translate(32.385 0.694)" fill="#fd0"/>
    <path id="Path_44161" data-name="Path 44161" d="M9.248,43.943C9.248,20.647,58.983,1.587,121.855.1,119.3.033,116.718,0,114.133,0,51.359,0,.463,18.552.463,41.424c0,11.828,13.6,22.5,35.42,30.054C19.228,63.952,9.248,54.365,9.248,43.943Z" transform="translate(0 0)" fill="#ed1a3b"/>
    <path id="Path_44162" data-name="Path 44162" d="M31.5,36.611,31.026,35.3H28.8l-.458,1.309H27.051l2.6-6.511h.507l2.618,6.511Zm-1.587-4.564-.785,2.372h1.554Z" transform="translate(11.564 13.091)" fill="#fff"/>
    <path id="Path_44163" data-name="Path 44163" d="M31.611,30.213l1.112-.262v5.284c0,.573.18.916.523,1.031a.9.9,0,0,1-.883.491c-.507,0-.752-.344-.752-1.031Z" transform="translate(13.547 13.027)" fill="#fff"/>
    <path id="Path_44164" data-name="Path 44164" d="M33.265,33.491V32.46H35.62v1.031Z" transform="translate(14.266 14.118)" fill="#fff"/>
    <path id="Path_44165" data-name="Path 44165" d="M41.965,36.586H40.853l-.671-3.468-1.309,3.55h-.409l-1.309-3.55-.7,3.468H35.34l1.309-6.429h.622l1.407,4.335,1.374-4.335h.605Z" transform="translate(15.169 13.116)" fill="#fff"/>
    <path id="Path_44166" data-name="Path 44166" d="M43.151,35.616a1.121,1.121,0,0,1-.54.409,2.106,2.106,0,0,1-.785.164,1.847,1.847,0,0,1-1.211-.376,1.37,1.37,0,0,1-.442-1.08,1.522,1.522,0,0,1,.622-1.276A2.879,2.879,0,0,1,42.562,33a1.626,1.626,0,0,1,.458.065c0-.556-.36-.834-1.063-.834a2.441,2.441,0,0,0-1.047.2l-.245-.851a3.213,3.213,0,0,1,1.374-.278,2.194,2.194,0,0,1,1.587.491,2.55,2.55,0,0,1,.507,1.849v1c0,.622.131,1.014.376,1.178a.536.536,0,0,1-.311.294,1.426,1.426,0,0,1-.393.049.594.594,0,0,1-.425-.18A1.04,1.04,0,0,1,43.151,35.616Zm-.115-1.75a3.04,3.04,0,0,0-.425-.066c-.883,0-1.325.278-1.325.851,0,.425.245.638.753.638a.873.873,0,0,0,1-.982Z" transform="translate(17.271 13.612)" fill="#fff"/>
    <path id="Path_44167" data-name="Path 44167" d="M46.906,36.675v-.294a1.251,1.251,0,0,1-.475.262,2.3,2.3,0,0,1-.671.115,2.082,2.082,0,0,1-1.571-.622,2.49,2.49,0,0,1-.573-1.734,2.554,2.554,0,0,1,.654-1.816,2.131,2.131,0,0,1,1.636-.7,2.16,2.16,0,0,1,.981.213V30.213L48,29.952v6.724Zm0-3.583a1.216,1.216,0,0,0-.736-.278,1.3,1.3,0,0,0-1.031.409,1.632,1.632,0,0,0-.36,1.145A1.28,1.28,0,0,0,46.2,35.841a.986.986,0,0,0,.393-.1.721.721,0,0,0,.311-.2Z" transform="translate(18.769 13.027)" fill="#fff"/>
    <path id="Path_44168" data-name="Path 44168" d="M47.848,36.616v-3.8h-.605V31.9h1.734v4.712Zm.573-6.528a.672.672,0,0,1,.458.18.592.592,0,0,1,.18.442.615.615,0,0,1-.638.622.672.672,0,0,1-.458-.18.593.593,0,0,1-.18-.442.6.6,0,0,1,.18-.442A.672.672,0,0,1,48.421,30.088Z" transform="translate(20.346 13.086)" fill="#fff"/>
    <path id="Path_44169" data-name="Path 44169" d="M52.4,36.09V33.375a1.428,1.428,0,0,0-.229-.883.977.977,0,0,0-.769-.278,1.3,1.3,0,0,0-.524.131,1.186,1.186,0,0,0-.442.344v3.4H49.329V31.379h.8l.213.442a1.712,1.712,0,0,1,1.342-.524,1.751,1.751,0,0,1,1.342.507,1.938,1.938,0,0,1,.491,1.407V36.09Z" transform="translate(21.253 13.612)" fill="#fff"/>
    <path id="Path_44170" data-name="Path 44170" d="M55.836,35.616a1.151,1.151,0,0,1-.524.409,2.106,2.106,0,0,1-.785.164,1.847,1.847,0,0,1-1.211-.376,1.37,1.37,0,0,1-.442-1.08,1.522,1.522,0,0,1,.622-1.276A2.945,2.945,0,0,1,55.264,33a1.626,1.626,0,0,1,.458.065c0-.556-.36-.834-1.063-.834a2.441,2.441,0,0,0-1.047.2l-.245-.851a3.137,3.137,0,0,1,1.358-.278,2.265,2.265,0,0,1,1.6.491,2.55,2.55,0,0,1,.507,1.849v1c0,.622.131,1.014.376,1.178a.585.585,0,0,1-.311.294,1.389,1.389,0,0,1-.376.049.594.594,0,0,1-.425-.18A.788.788,0,0,1,55.836,35.616Zm-.115-1.75A3.445,3.445,0,0,0,55.3,33.8c-.883,0-1.325.278-1.325.851,0,.425.245.638.753.638a.873.873,0,0,0,1-.982Z" transform="translate(22.795 13.612)" fill="#fff"/>
    <path id="Path_44171" data-name="Path 44171" d="M59.542,36.68v-2.9a.89.89,0,0,0-.278-.7.976.976,0,0,0-.72-.262,1.23,1.23,0,0,0-.556.147,1.016,1.016,0,0,0-.393.327v3.37H56.466V30.2L57.6,29.94v2.307a1.7,1.7,0,0,1,1.178-.376,1.832,1.832,0,0,1,1.374.491,1.887,1.887,0,0,1,.491,1.407v2.9h-1.1Z" transform="translate(24.357 13.022)" fill="#fff"/>
    <path id="Path_44172" data-name="Path 44172" d="M62.19,36.586V30.157h1.145v6.429Z" transform="translate(26.846 13.116)" fill="#fff"/>
    <path id="Path_44173" data-name="Path 44173" d="M66.965,36.09V33.375a1.428,1.428,0,0,0-.229-.883.978.978,0,0,0-.769-.278,1.3,1.3,0,0,0-.524.131,1.186,1.186,0,0,0-.442.344v3.4H63.889V31.379h.8l.2.442a1.713,1.713,0,0,1,1.342-.524,1.751,1.751,0,0,1,1.342.507,1.938,1.938,0,0,1,.491,1.407V36.09Z" transform="translate(27.585 13.612)" fill="#fff"/>
    <path id="Path_44174" data-name="Path 44174" d="M67.378,32.649v-.883h.556v-.949l1.113-.409v1.358h1.309v.883H69.046V34.71a1.083,1.083,0,0,0,.164.7.715.715,0,0,0,.573.213,1.328,1.328,0,0,0,.736-.213v1.014a3.76,3.76,0,0,1-1.1.131,1.473,1.473,0,0,1-1.1-.393,1.592,1.592,0,0,1-.376-1.129V32.649Z" transform="translate(29.103 13.225)" fill="#fff"/>
    <path id="Path_44175" data-name="Path 44175" d="M74.5,34.062h-3.4a1.241,1.241,0,0,0,.393.883,1.4,1.4,0,0,0,.965.311,1.518,1.518,0,0,0,1.145-.393l.425.834a2.759,2.759,0,0,1-1.75.475,2.3,2.3,0,0,1-1.718-.638,2.366,2.366,0,0,1-.622-1.751,2.442,2.442,0,0,1,.687-1.8,2.272,2.272,0,0,1,1.669-.687,2.3,2.3,0,0,1,1.669.605,2.059,2.059,0,0,1,.622,1.554A1.913,1.913,0,0,1,74.5,34.062Zm-3.354-.818h2.339a1.036,1.036,0,0,0-1.145-1.031A1.133,1.133,0,0,0,71.142,33.244Z" transform="translate(30.213 13.612)" fill="#fff"/>
    <path id="Path_44176" data-name="Path 44176" d="M76.545,32.409a1.142,1.142,0,0,0-.654-.2.883.883,0,0,0-.687.344,1.252,1.252,0,0,0-.295.851V36.09H73.8V31.379h1.112v.442a1.593,1.593,0,0,1,1.243-.524,1.776,1.776,0,0,1,.867.164Z" transform="translate(31.894 13.612)" fill="#fff"/>
    <path id="Path_44177" data-name="Path 44177" d="M79.57,36.09V33.375a1.428,1.428,0,0,0-.229-.883.954.954,0,0,0-.769-.278,1.3,1.3,0,0,0-.524.131,1.334,1.334,0,0,0-.442.344v3.4h-1.1V31.379h.8l.213.442a1.689,1.689,0,0,1,1.342-.524,1.751,1.751,0,0,1,1.341.507,1.938,1.938,0,0,1,.491,1.407V36.09Z" transform="translate(33.075 13.612)" fill="#fff"/>
    <path id="Path_44178" data-name="Path 44178" d="M82.994,35.616a1.151,1.151,0,0,1-.524.409,2.106,2.106,0,0,1-.785.164,1.816,1.816,0,0,1-1.211-.376,1.37,1.37,0,0,1-.442-1.08,1.522,1.522,0,0,1,.622-1.276A2.879,2.879,0,0,1,82.422,33a1.625,1.625,0,0,1,.458.065c0-.556-.36-.834-1.063-.834a2.492,2.492,0,0,0-1.047.2l-.245-.851A3.161,3.161,0,0,1,81.9,31.3a2.265,2.265,0,0,1,1.6.491,2.55,2.55,0,0,1,.507,1.849v1c0,.622.131,1.014.376,1.178a.585.585,0,0,1-.311.294,1.426,1.426,0,0,1-.393.049.623.623,0,0,1-.425-.18A.788.788,0,0,1,82.994,35.616Zm-.1-1.75a3.441,3.441,0,0,0-.425-.066c-.883,0-1.325.278-1.325.851q0,.638.736.638a.873.873,0,0,0,1-.982v-.442Z" transform="translate(34.607 13.612)" fill="#fff"/>
    <path id="Path_44179" data-name="Path 44179" d="M83.362,32.649v-.883h.556v-.949l1.113-.409v1.358H86.34v.883H85.031V34.71a1.083,1.083,0,0,0,.164.7.678.678,0,0,0,.556.213,1.382,1.382,0,0,0,.752-.213v1.014a3.759,3.759,0,0,1-1.1.131,1.474,1.474,0,0,1-1.1-.393,1.522,1.522,0,0,1-.376-1.129V32.649Z" transform="translate(36.055 13.225)" fill="#fff"/>
    <path id="Path_44180" data-name="Path 44180" d="M86.533,36.616v-3.8h-.605V31.9h1.734v4.712Zm.573-6.528a.672.672,0,0,1,.458.18.61.61,0,0,1,.2.442.56.56,0,0,1-.2.442.6.6,0,0,1-.458.18.672.672,0,0,1-.458-.18.593.593,0,0,1-.18-.442.6.6,0,0,1,.18-.442A.672.672,0,0,1,87.106,30.088Z" transform="translate(37.171 13.086)" fill="#fff"/>
    <path id="Path_44181" data-name="Path 44181" d="M87.809,33.718a2.487,2.487,0,0,1,.622-1.75,2.1,2.1,0,0,1,1.652-.671,2.17,2.17,0,0,1,1.685.654,2.508,2.508,0,0,1,.605,1.783,2.584,2.584,0,0,1-.605,1.783,2.431,2.431,0,0,1-3.354,0A2.656,2.656,0,0,1,87.809,33.718Zm1.162,0c0,1.031.376,1.554,1.129,1.554a.945.945,0,0,0,.818-.409,1.8,1.8,0,0,0,.311-1.145c0-1.014-.376-1.538-1.129-1.538a.945.945,0,0,0-.818.409A1.813,1.813,0,0,0,88.971,33.718Z" transform="translate(37.989 13.612)" fill="#fff"/>
    <path id="Path_44182" data-name="Path 44182" d="M94.681,36.09V33.375a1.428,1.428,0,0,0-.229-.883.977.977,0,0,0-.769-.278,1.3,1.3,0,0,0-.524.131,1.335,1.335,0,0,0-.442.344v3.4H91.606V31.379h.8l.213.442a1.712,1.712,0,0,1,1.341-.524A1.751,1.751,0,0,1,95.3,31.8a1.939,1.939,0,0,1,.491,1.407V36.09Z" transform="translate(39.64 13.612)" fill="#fff"/>
    <path id="Path_44183" data-name="Path 44183" d="M98.118,35.616a1.121,1.121,0,0,1-.54.409,2.106,2.106,0,0,1-.785.164,1.816,1.816,0,0,1-1.211-.376,1.37,1.37,0,0,1-.442-1.08,1.522,1.522,0,0,1,.622-1.276A2.879,2.879,0,0,1,97.529,33a1.625,1.625,0,0,1,.458.065c0-.556-.36-.834-1.063-.834a2.441,2.441,0,0,0-1.047.2l-.245-.851a3.161,3.161,0,0,1,1.374-.278,2.194,2.194,0,0,1,1.587.491,2.55,2.55,0,0,1,.507,1.849v1c0,.622.131,1.014.376,1.178a.585.585,0,0,1-.311.294,1.426,1.426,0,0,1-.393.049.623.623,0,0,1-.425-.18A.847.847,0,0,1,98.118,35.616ZM98,33.866a3.444,3.444,0,0,0-.425-.066c-.883,0-1.325.278-1.325.851q0,.638.736.638a.873.873,0,0,0,1-.982v-.442Z" transform="translate(41.177 13.612)" fill="#fff"/>
    <path id="Path_44184" data-name="Path 44184" d="M98.868,30.213l1.112-.262v5.284c0,.573.18.916.524,1.031a.9.9,0,0,1-.884.491c-.507,0-.753-.344-.753-1.031Z" transform="translate(42.799 13.027)" fill="#fff"/>
    <path id="Path_44185" data-name="Path 44185" d="M102.562,30.157h1.146v4.352a1.129,1.129,0,0,0,.327.834,1.2,1.2,0,0,0,.882.327,1.5,1.5,0,0,0,.981-.311,1.132,1.132,0,0,0,.344-.867V30.157h1.145v4.417a1.946,1.946,0,0,1-.672,1.554,2.688,2.688,0,0,1-1.8.556,2.578,2.578,0,0,1-1.751-.54,2,2,0,0,1-.606-1.571Z" transform="translate(44.405 13.116)" fill="#fff"/>
    <path id="Path_44186" data-name="Path 44186" d="M109.879,36.09V33.375a1.325,1.325,0,0,0-.245-.883.938.938,0,0,0-.752-.278,1.3,1.3,0,0,0-.524.131,1.344,1.344,0,0,0-.442.344v3.4H106.8V31.379h.8l.214.442a1.711,1.711,0,0,1,1.342-.524,1.754,1.754,0,0,1,1.342.507,1.938,1.938,0,0,1,.491,1.407V36.09Z" transform="translate(46.25 13.612)" fill="#fff"/>
    <path id="Path_44187" data-name="Path 44187" d="M110.954,36.616v-3.8h-.6V31.9h1.733v4.712Zm.574-6.528a.671.671,0,0,1,.458.18.593.593,0,0,1,.179.442.614.614,0,0,1-.637.622.675.675,0,0,1-.459-.18.593.593,0,0,1-.179-.442.6.6,0,0,1,.179-.442A.644.644,0,0,1,111.528,30.088Z" transform="translate(47.792 13.086)" fill="#fff"/>
    <path id="Path_44188" data-name="Path 44188" d="M114.6,36.148h-.409l-2.144-4.794h1.211l1.145,2.879,1.227-2.879h1.178Z" transform="translate(48.531 13.636)" fill="#fff"/>
    <path id="Path_44189" data-name="Path 44189" d="M120.14,34.062h-3.4a1.242,1.242,0,0,0,.393.883,1.4,1.4,0,0,0,.964.311,1.516,1.516,0,0,0,1.145-.393l.426.834a2.761,2.761,0,0,1-1.751.475,2.271,2.271,0,0,1-1.718-.638,2.686,2.686,0,0,1,.065-3.55,2.274,2.274,0,0,1,1.669-.687,2.3,2.3,0,0,1,1.669.605,2.057,2.057,0,0,1,.623,1.554A2.551,2.551,0,0,1,120.14,34.062Zm-3.369-.818h2.339a1.041,1.041,0,0,0-1.161-1.031A1.148,1.148,0,0,0,116.771,33.244Z" transform="translate(50.058 13.612)" fill="#fff"/>
    <path id="Path_44190" data-name="Path 44190" d="M122.174,32.409a1.142,1.142,0,0,0-.654-.2.882.882,0,0,0-.687.344,1.252,1.252,0,0,0-.3.851V36.09h-1.112V31.379h1.112v.442a1.6,1.6,0,0,1,1.244-.524,1.776,1.776,0,0,1,.867.164Z" transform="translate(51.739 13.612)" fill="#fff"/>
    <path id="Path_44191" data-name="Path 44191" d="M121.938,35.785l.393-.867a1.755,1.755,0,0,0,1.129.393c.425,0,.654-.147.654-.458a.561.561,0,0,0-.2-.442,3.384,3.384,0,0,0-.769-.409c-.818-.344-1.227-.8-1.227-1.423a1.076,1.076,0,0,1,.475-.949,2,2,0,0,1,1.21-.344,3.112,3.112,0,0,1,1.392.327l-.327.851a1.479,1.479,0,0,0-1.014-.311c-.393,0-.59.147-.59.458a.422.422,0,0,0,.2.327,3.432,3.432,0,0,0,.818.393,2.143,2.143,0,0,1,.9.589,1.31,1.31,0,0,1,.278.834,1.214,1.214,0,0,1-.491,1.031,2.179,2.179,0,0,1-1.342.376,2.981,2.981,0,0,1-.752-.082A2.451,2.451,0,0,1,121.938,35.785Z" transform="translate(52.825 13.607)" fill="#fff"/>
    <path id="Path_44192" data-name="Path 44192" d="M125.264,36.616v-3.8h-.606V31.9h1.735v4.712Zm.573-6.528a.675.675,0,0,1,.459.18.61.61,0,0,1,.2.442.56.56,0,0,1-.2.442.607.607,0,0,1-.459.18.671.671,0,0,1-.458-.18.612.612,0,0,1-.2-.442.561.561,0,0,1,.2-.442A.671.671,0,0,1,125.836,30.088Z" transform="translate(54.015 13.086)" fill="#fff"/>
    <path id="Path_44193" data-name="Path 44193" d="M126.5,32.649v-.883h.541v-.949l1.112-.409v1.358h1.309v.883h-1.309V34.71a1.081,1.081,0,0,0,.164.7.677.677,0,0,0,.557.213,1.343,1.343,0,0,0,.752-.213v1.014a3.756,3.756,0,0,1-1.1.131,1.476,1.476,0,0,1-1.1-.393,1.592,1.592,0,0,1-.376-1.129V32.649Z" transform="translate(54.818 13.225)" fill="#fff"/>
    <path id="Path_44194" data-name="Path 44194" d="M131.548,36.813a1.542,1.542,0,0,1-.768.785,2.822,2.822,0,0,1-1.359.311v-.965c.867,0,1.293-.213,1.293-.638a3.7,3.7,0,0,0-.36-1.292l-1.488-3.648h1.161l1.309,3.256,1.178-3.256h1.145Z" transform="translate(55.845 13.641)" fill="#fff"/>
    <path id="Path_44195" data-name="Path 44195" d="M85.558,18.06v7.558H82.025V18.076H79.473v7.542H74.385V18.076H69.264a2.017,2.017,0,0,0-1.44.752,2.114,2.114,0,0,0-.491,1.473v7.264h20.81V18.06ZM71.832,25.618H69.869V21.806a1,1,0,0,1,.311-.753,1.165,1.165,0,0,1,.867-.376h.785Z" transform="translate(29.082 7.855)" fill="#fff"/>
    <path id="Path_44196" data-name="Path 44196" d="M100.367,13.784V27.461H98.388v-5.4a2.192,2.192,0,0,0-2.012-2.143H91.32v7.542h-2.4V22.03a2.106,2.106,0,0,0-2.012-2.11H84.3v2.618h2.061v4.941H83.647v1.931h19.289V13.8h-2.569Zm-4.515,9.849v3.812H93.873V22.521h.785a1.068,1.068,0,0,1,.867.344A1.253,1.253,0,0,1,95.852,23.633Z" transform="translate(36.179 5.995)" fill="#fff"/>
    <path id="Path_44197" data-name="Path 44197" d="M101.13,29.425V13.784H98.561v15.64Z" transform="translate(42.665 5.995)" fill="#fff"/>
    <path id="Path_44198" data-name="Path 44198" d="M39.958,32.806h2.258V30.385H39.958Zm-3.648,0h2.258V30.385H36.31ZM53.8,27.473H51.574V22.09a2.192,2.192,0,0,0-2.012-2.143H44.523v7.542H42.2V19.947H39.664v7.542h-5.1V19.947H29.439a2,2,0,0,0-1.44.769,2.114,2.114,0,0,0-.491,1.473v7.264H56.367V13.8H53.782V27.473Zm-21.775,0H30.06V23.661a1,1,0,0,1,.311-.753,1.164,1.164,0,0,1,.867-.376h.785Zm17.015-3.812v3.828h-1.98V22.565h.769a1.068,1.068,0,0,1,.867.344A1.049,1.049,0,0,1,49.038,23.661ZM30.911,16.593H28.653v2.421h2.258Zm3.665,0H32.318v2.421h2.258ZM162.692,26.966V22.074a2.182,2.182,0,0,0-2.013-2.143h-5.055v7.526h-4.2a2.181,2.181,0,0,1-2.012-1.947V22.532h1.342v2.879H153.3V22.434a2.24,2.24,0,0,0-1.979-2.519h-4.434V27.44h-2.83V19.914h-5.121a2.016,2.016,0,0,0-1.439.752,2.114,2.114,0,0,0-.491,1.473V29.4h25.882v-.016l.425.049V27.473C162.643,27.473,162.692,26.966,162.692,26.966Zm-21.154.491-1.963-.016V23.628a1,1,0,0,1,.31-.753,1.166,1.166,0,0,1,.868-.376h.785Zm16.638.016V23.661a1.048,1.048,0,0,1,.343-.753,1.117,1.117,0,0,1,.868-.36h.769v4.924Zm14.168,5.742H174.6V30.794h-2.257ZM99.656,33.2h2.258V30.778H99.656ZM73.415,27.473h-5.1a2.195,2.195,0,0,1-2.094-1.963V22.532h1.342v2.879H70.11V22.434a2.219,2.219,0,0,0-1.979-2.5H63.7v7.542H60.7V13.8H58.151v15.64H75.967V13.8H73.415Zm103.756-1.1v-3.55a3.609,3.609,0,0,0-1.276-2.209,3.453,3.453,0,0,0-1.8-.687h-3.714V23.35h2.536V22.025h.785a.832.832,0,0,1,.9.605v3.55a1.259,1.259,0,0,0,1.081,1.26h-7.575V13.8h-2.537v15.64h12.909V27.489A1.328,1.328,0,0,1,177.171,26.377Zm-74,6.822h2.258V30.778h-2.258ZM93.145,19.031H95.4V16.61H93.145Zm-7.329,0h2.258V16.61H85.816ZM77.832,29.436H80.4V13.8H77.832Zm11.6-10.405h2.258V16.61H89.431Z" transform="translate(11.761 6)" fill="#fff"/>
    <path id="Path_44199" data-name="Path 44199" d="M106.9,15.757h-2.257v2.421H106.9Z" transform="translate(45.308 6.853)" fill="#fff"/>
    <path id="Path_44200" data-name="Path 44200" d="M109.416,15.757h-2.259v2.421h2.259Z" transform="translate(46.404 6.853)" fill="#fff"/>
  </g>
</svg>
