<svg id="finance" xmlns="http://www.w3.org/2000/svg" width="23.659" height="23.658" viewBox="0 0 23.659 23.658">
  <path id="Path_52141" data-name="Path 52141" d="M2.25,31.5H25.909v1.69H2.25Z" transform="translate(-2.25 -9.531)" fill="#fd0"/>
  <path id="Path_52142" data-name="Path 52142" d="M23.934,9.855a.845.845,0,0,0,.845-.845V6.475a.845.845,0,0,0-.558-.794L14.927,2.3a.845.845,0,0,0-.575,0L5.057,5.681a.845.845,0,0,0-.557.794V9.01a.845.845,0,0,0,.845.845H6.19V20.84H4.5v1.69H24.779V20.84h-1.69V9.855ZM6.19,7.066l8.45-3.076,8.45,3.076v1.1H6.19ZM16.33,20.84H12.95V9.855h3.38ZM7.88,9.855h3.38V20.84H7.88ZM21.4,20.84H18.02V9.855H21.4Z" transform="translate(-2.81 -2.251)" fill="#fd0"/>
</svg>
