<svg xmlns="http://www.w3.org/2000/svg" width="22.542" height="22.796" viewBox="0 0 22.542 22.796">
  <path id="paypal-alt" d="M14.247,7.2q0-2.153-3.293-2.153H10a1.345,1.345,0,0,0-.823.285,1.072,1.072,0,0,0-.443.729l-.887,3.8v.19a.756.756,0,0,0,.76.76h.76a7.882,7.882,0,0,0,1.773-.19,6.481,6.481,0,0,0,1.551-.57,2.75,2.75,0,0,0,1.14-1.108A3.476,3.476,0,0,0,14.247,7.2Zm8.295,2.09A6.939,6.939,0,0,1,19.5,15.182Q16.527,17.4,11.081,17.4h-.823a1.345,1.345,0,0,0-.823.285,1.072,1.072,0,0,0-.443.728L7.978,22.781a1.561,1.561,0,0,1-.57.792,1.508,1.508,0,0,1-.95.349H3.546a1.055,1.055,0,0,1-.728-.253.885.885,0,0,1-.285-.7,6.726,6.726,0,0,1,.19-.887H4.749a1.468,1.468,0,0,0,.918-.317,1.152,1.152,0,0,0,.475-.76l1.013-4.369a1.458,1.458,0,0,1,.538-.76,1.385,1.385,0,0,1,.855-.317h.823q5.382,0,8.358-2.216A6.925,6.925,0,0,0,20.705,7.52a4.858,4.858,0,0,0-.7-2.786,4.643,4.643,0,0,1,2.533,4.559ZM20.009,6.761a7.045,7.045,0,0,1-3.039,5.889q-2.976,2.216-8.422,2.216H7.725a1.345,1.345,0,0,0-.823.285,1.072,1.072,0,0,0-.443.728L5.445,20.184a1.612,1.612,0,0,1-.538.855,1.465,1.465,0,0,1-.981.348H1.013a1.055,1.055,0,0,1-.728-.253.884.884,0,0,1-.285-.7v-.253L4.179,2.265a1.233,1.233,0,0,1,.507-.792,1.508,1.508,0,0,1,.95-.349h6.142q.887,0,1.678.032a12.426,12.426,0,0,1,1.678.19,8.633,8.633,0,0,1,1.551.411,6.729,6.729,0,0,1,1.33.7,4.129,4.129,0,0,1,1.077,1.013,4.7,4.7,0,0,1,.665,1.425A6.556,6.556,0,0,1,20.009,6.761Z" transform="translate(0 -1.125)" fill="#fd0"/>
</svg>
